<?xml version="1.0" encoding="utf-8"?>
<!-- Generator: Adobe Illustrator 22.0.1, SVG Export Plug-In . SVG Version: 6.00 Build 0)  -->
<svg version="1.1" id="Capa_1" xmlns="http://www.w3.org/2000/svg" xmlns:xlink="http://www.w3.org/1999/xlink" x="0px" y="0px"
	 viewBox="0 0 122.3 35.1" style="enable-background:new 0 0 122.3 35.1;" xml:space="preserve">
<style type="text/css">
	.st0{fill:none;stroke:#3397ED;stroke-miterlimit:10;}
	.st1{fill:#3397ED;}
	.st2{fill:#00ACED;}
</style>
<path class="st0" d="M107,32.8H13.7c-6.6,0-12-5.4-12-12v-6c0-6.6,5.4-12,12-12H107c6.6,0,12,5.4,12,12v6
	C119,27.4,113.6,32.8,107,32.8z"/>
<g>
	<g>
		<path class="st1" d="M21.3,19.5c0-4-3.1-11.9-7.3-11.9s-7.3,7.9-7.3,11.9c0,2.6,1.5,5,3.6,6.2v1.6l-1.1,0.4
			C9.1,27.7,8.9,28,9,28.2c0.1,0.2,0.2,0.3,0.4,0.3c0,0,0.1,0,0.1,0l0.8-0.3V29c0,0.3,0.2,0.5,0.5,0.5c0.3,0,0.5-0.2,0.5-0.5v-0.7
			l0.8,0.3c0.2,0.1,0.5,0,0.6-0.3c0.1-0.2,0-0.5-0.3-0.6l-1.1-0.4v-1.1c0.8,0.3,1.8,0.5,2.7,0.5s1.9-0.2,2.7-0.5v1.1l-1.1,0.4
			c-0.2,0.1-0.4,0.3-0.3,0.6c0.1,0.2,0.2,0.3,0.4,0.3c0,0,0.1,0,0.1,0l0.8-0.3V29c0,0.3,0.2,0.5,0.5,0.5s0.5-0.2,0.5-0.5v-0.7
			l0.8,0.3c0.2,0.1,0.5,0,0.6-0.3c0.1-0.2,0-0.5-0.3-0.6l-1.1-0.4v-1.6C19.8,24.5,21.3,22.2,21.3,19.5z M14,25.8
			c-3.5,0-6.4-2.8-6.4-6.3c0-3.2,2-8.2,4.4-10.2l1.3,0.4L12.7,11c-0.1,0.1-0.1,0.2,0,0.4c0,0.1,0.1,0.2,0.3,0.3l1.5,0.6l-1.2,0.9
			c-0.2,0.1-0.2,0.4-0.1,0.6L14,15c0.1,0.1,0.2,0.2,0.4,0.2c0.1,0,0.2,0,0.3-0.1c0.2-0.1,0.2-0.4,0.1-0.6l-0.6-0.8l1.5-1.1
			c0.1-0.1,0.2-0.3,0.2-0.4c0-0.2-0.1-0.3-0.3-0.4L13.7,11l0.7-1.4c0.1-0.1,0.1-0.3,0-0.4C14.3,9.1,14.2,9,14.1,9l-1-0.3
			c0.3-0.1,0.6-0.2,0.9-0.2c3.2,0,6.4,7,6.4,11C20.3,23,17.5,25.8,14,25.8z"/>
	</g>
</g>
<g>
	<path class="st1" d="M33.1,20.7l-1.8-7.3v7.9c0,0.4-0.1,0.8-0.3,1c-0.2,0.2-0.5,0.3-0.8,0.3c-0.3,0-0.6-0.1-0.8-0.3
		c-0.2-0.2-0.3-0.5-0.3-1v-9c0-0.5,0.1-0.8,0.4-1c0.3-0.2,0.6-0.3,1.1-0.3h0.7c0.4,0,0.7,0,0.9,0.1c0.2,0.1,0.3,0.2,0.4,0.4
		c0.1,0.2,0.2,0.5,0.3,1l1.7,6.3l1.7-6.3c0.1-0.5,0.2-0.8,0.3-1c0.1-0.2,0.2-0.3,0.4-0.4C37.3,11,37.6,11,38,11h0.7
		c0.4,0,0.8,0.1,1.1,0.3s0.4,0.5,0.4,1v9c0,0.4-0.1,0.8-0.3,1c-0.2,0.2-0.5,0.3-0.8,0.3c-0.3,0-0.6-0.1-0.8-0.3
		c-0.2-0.2-0.3-0.5-0.3-1v-7.9l-1.8,7.3c-0.1,0.5-0.2,0.8-0.3,1c-0.1,0.2-0.2,0.4-0.4,0.6c-0.2,0.2-0.5,0.3-0.8,0.3
		c-0.3,0-0.5-0.1-0.7-0.2c-0.2-0.1-0.3-0.3-0.4-0.4s-0.2-0.4-0.2-0.6S33.2,20.9,33.1,20.7z"/>
	<path class="st1" d="M43.5,13c-0.3,0-0.5-0.1-0.8-0.3c-0.2-0.2-0.3-0.4-0.3-0.8c0-0.3,0.1-0.5,0.3-0.7c0.2-0.2,0.5-0.3,0.8-0.3
		c0.3,0,0.5,0.1,0.7,0.3c0.2,0.2,0.3,0.4,0.3,0.8c0,0.3-0.1,0.6-0.3,0.8C44,12.9,43.8,13,43.5,13z M44.5,15.2v6.1
		c0,0.4-0.1,0.7-0.3,1c-0.2,0.2-0.5,0.3-0.8,0.3s-0.6-0.1-0.8-0.3c-0.2-0.2-0.3-0.5-0.3-1v-6.1c0-0.4,0.1-0.7,0.3-0.9
		s0.4-0.3,0.8-0.3s0.6,0.1,0.8,0.3C44.4,14.5,44.5,14.8,44.5,15.2z"/>
	<path class="st1" d="M48.6,15.1v0.3c0.4-0.5,0.8-0.9,1.2-1.1c0.4-0.2,1-0.3,1.5-0.3c0.6,0,1.1,0.1,1.5,0.4s0.8,0.6,1,1
		c0.1,0.3,0.2,0.5,0.3,0.8c0,0.3,0.1,0.7,0.1,1.2v4c0,0.4-0.1,0.7-0.3,1c-0.2,0.2-0.4,0.3-0.8,0.3c-0.3,0-0.6-0.1-0.8-0.3
		c-0.2-0.2-0.3-0.5-0.3-1v-3.5c0-0.7-0.1-1.2-0.3-1.6s-0.6-0.6-1.2-0.6c-0.4,0-0.7,0.1-1,0.3c-0.3,0.2-0.5,0.5-0.7,0.9
		c-0.1,0.3-0.2,0.9-0.2,1.8v2.7c0,0.4-0.1,0.8-0.3,1c-0.2,0.2-0.5,0.3-0.8,0.3c-0.3,0-0.6-0.1-0.8-0.3c-0.2-0.2-0.3-0.5-0.3-1v-6.1
		c0-0.4,0.1-0.7,0.3-0.9c0.2-0.2,0.4-0.3,0.7-0.3c0.2,0,0.4,0,0.5,0.1c0.2,0.1,0.3,0.2,0.4,0.4C48.6,14.6,48.6,14.9,48.6,15.1z"/>
	<path class="st1" d="M57.4,13c-0.3,0-0.5-0.1-0.8-0.3c-0.2-0.2-0.3-0.4-0.3-0.8c0-0.3,0.1-0.5,0.3-0.7c0.2-0.2,0.5-0.3,0.8-0.3
		c0.3,0,0.5,0.1,0.7,0.3c0.2,0.2,0.3,0.4,0.3,0.8c0,0.3-0.1,0.6-0.3,0.8C57.9,12.9,57.7,13,57.4,13z M58.5,15.2v6.1
		c0,0.4-0.1,0.7-0.3,1c-0.2,0.2-0.5,0.3-0.8,0.3s-0.6-0.1-0.8-0.3c-0.2-0.2-0.3-0.5-0.3-1v-6.1c0-0.4,0.1-0.7,0.3-0.9
		s0.4-0.3,0.8-0.3s0.6,0.1,0.8,0.3C58.4,14.5,58.5,14.8,58.5,15.2z"/>
	<path class="st1" d="M68.2,12.9h-2.5v8.3c0,0.5-0.1,0.8-0.3,1.1c-0.2,0.2-0.5,0.3-0.8,0.3c-0.3,0-0.6-0.1-0.8-0.3
		c-0.2-0.2-0.3-0.6-0.3-1.1v-8.3h-2.5c-0.4,0-0.7-0.1-0.9-0.3c-0.2-0.2-0.3-0.4-0.3-0.7c0-0.3,0.1-0.5,0.3-0.7
		c0.2-0.2,0.5-0.3,0.9-0.3h7.3c0.4,0,0.7,0.1,0.9,0.3c0.2,0.2,0.3,0.4,0.3,0.7c0,0.3-0.1,0.5-0.3,0.7S68.6,12.9,68.2,12.9z"/>
	<path class="st1" d="M71.3,15.3l1.4,4.7l1.3-4.4c0.1-0.5,0.2-0.8,0.3-0.9c0.1-0.2,0.2-0.3,0.4-0.5c0.2-0.2,0.4-0.2,0.7-0.2
		c0.3,0,0.6,0.1,0.7,0.2c0.2,0.2,0.3,0.3,0.4,0.5c0.1,0.2,0.2,0.5,0.3,0.9l1.3,4.4l1.4-4.7c0.1-0.3,0.2-0.6,0.2-0.7
		c0.1-0.2,0.2-0.3,0.3-0.4c0.1-0.1,0.3-0.2,0.6-0.2c0.3,0,0.5,0.1,0.7,0.3c0.2,0.2,0.3,0.4,0.3,0.6c0,0.2-0.1,0.5-0.2,1l-1.7,5.1
		c-0.2,0.4-0.3,0.7-0.4,0.9s-0.2,0.4-0.4,0.5c-0.2,0.2-0.4,0.2-0.7,0.2c-0.3,0-0.6-0.1-0.8-0.2S77,22,76.9,21.8
		c-0.1-0.2-0.2-0.5-0.3-0.9l-1.2-4.1l-1.2,4.1c-0.2,0.6-0.3,1-0.5,1.3s-0.5,0.4-1,0.4c-0.2,0-0.4,0-0.6-0.1
		c-0.2-0.1-0.3-0.2-0.4-0.4c-0.1-0.2-0.2-0.4-0.3-0.6c-0.1-0.2-0.1-0.4-0.2-0.5l-1.7-5.1c-0.2-0.5-0.3-0.8-0.3-1
		c0-0.2,0.1-0.4,0.3-0.6c0.2-0.2,0.4-0.3,0.7-0.3c0.4,0,0.6,0.1,0.7,0.3C71.1,14.4,71.2,14.8,71.3,15.3z"/>
	<path class="st1" d="M84.1,13c-0.3,0-0.5-0.1-0.8-0.3c-0.2-0.2-0.3-0.4-0.3-0.8c0-0.3,0.1-0.5,0.3-0.7c0.2-0.2,0.5-0.3,0.8-0.3
		c0.3,0,0.5,0.1,0.7,0.3c0.2,0.2,0.3,0.4,0.3,0.8c0,0.3-0.1,0.6-0.3,0.8C84.6,12.9,84.3,13,84.1,13z M85.1,15.2v6.1
		c0,0.4-0.1,0.7-0.3,1c-0.2,0.2-0.5,0.3-0.8,0.3s-0.6-0.1-0.8-0.3c-0.2-0.2-0.3-0.5-0.3-1v-6.1c0-0.4,0.1-0.7,0.3-0.9
		s0.4-0.3,0.8-0.3s0.6,0.1,0.8,0.3C85,14.5,85.1,14.8,85.1,15.2z"/>
	<path class="st1" d="M87.4,14.1h0.2v-1.3c0-0.3,0-0.6,0-0.8c0-0.2,0.1-0.4,0.2-0.5c0.1-0.1,0.2-0.3,0.4-0.4
		c0.2-0.1,0.3-0.1,0.5-0.1c0.3,0,0.5,0.1,0.7,0.3c0.1,0.1,0.2,0.3,0.3,0.5c0,0.2,0.1,0.5,0.1,0.8v1.4h0.8c0.3,0,0.5,0.1,0.7,0.2
		c0.2,0.1,0.2,0.3,0.2,0.5c0,0.3-0.1,0.5-0.3,0.6c-0.2,0.1-0.5,0.2-1,0.2h-0.4v3.9c0,0.3,0,0.6,0,0.8c0,0.2,0.1,0.3,0.2,0.4
		c0.1,0.1,0.3,0.2,0.5,0.2c0.1,0,0.3,0,0.5-0.1c0.2,0,0.4-0.1,0.5-0.1c0.2,0,0.3,0.1,0.5,0.2c0.1,0.1,0.2,0.3,0.2,0.5
		c0,0.3-0.2,0.6-0.6,0.8c-0.4,0.2-0.9,0.3-1.6,0.3c-0.7,0-1.2-0.1-1.5-0.3c-0.3-0.2-0.6-0.5-0.7-0.9s-0.2-0.9-0.2-1.6v-4.1h-0.3
		c-0.3,0-0.5-0.1-0.7-0.2c-0.2-0.1-0.2-0.3-0.2-0.6s0.1-0.4,0.3-0.5C86.9,14.2,87.1,14.1,87.4,14.1z"/>
	<path class="st1" d="M93.1,14.1h0.2v-1.3c0-0.3,0-0.6,0-0.8c0-0.2,0.1-0.4,0.2-0.5c0.1-0.1,0.2-0.3,0.4-0.4
		c0.2-0.1,0.3-0.1,0.5-0.1c0.3,0,0.5,0.1,0.7,0.3c0.1,0.1,0.2,0.3,0.3,0.5c0,0.2,0.1,0.5,0.1,0.8v1.4h0.8c0.3,0,0.5,0.1,0.7,0.2
		c0.2,0.1,0.2,0.3,0.2,0.5c0,0.3-0.1,0.5-0.3,0.6c-0.2,0.1-0.5,0.2-1,0.2h-0.4v3.9c0,0.3,0,0.6,0,0.8c0,0.2,0.1,0.3,0.2,0.4
		c0.1,0.1,0.3,0.2,0.5,0.2c0.1,0,0.3,0,0.5-0.1c0.2,0,0.4-0.1,0.5-0.1c0.2,0,0.3,0.1,0.5,0.2c0.1,0.1,0.2,0.3,0.2,0.5
		c0,0.3-0.2,0.6-0.6,0.8c-0.4,0.2-0.9,0.3-1.6,0.3c-0.7,0-1.2-0.1-1.5-0.3c-0.3-0.2-0.6-0.5-0.7-0.9s-0.2-0.9-0.2-1.6v-4.1H93
		c-0.3,0-0.5-0.1-0.7-0.2c-0.2-0.1-0.2-0.3-0.2-0.6s0.1-0.4,0.3-0.5C92.5,14.2,92.7,14.1,93.1,14.1z"/>
	<path class="st1" d="M104.5,18.8h-4.2c0,0.5,0.1,0.9,0.3,1.3c0.2,0.4,0.4,0.6,0.8,0.8c0.3,0.2,0.7,0.3,1,0.3c0.3,0,0.5,0,0.7-0.1
		s0.4-0.2,0.6-0.3c0.2-0.1,0.4-0.3,0.5-0.4c0.2-0.1,0.4-0.3,0.6-0.6c0.1-0.1,0.3-0.1,0.5-0.1c0.2,0,0.4,0.1,0.5,0.2s0.2,0.3,0.2,0.5
		c0,0.2-0.1,0.4-0.2,0.7s-0.4,0.5-0.7,0.7s-0.7,0.4-1.1,0.6c-0.5,0.2-1,0.2-1.6,0.2c-1.4,0-2.4-0.4-3.2-1.2
		c-0.8-0.8-1.1-1.8-1.1-3.2c0-0.6,0.1-1.2,0.3-1.7c0.2-0.5,0.5-1,0.8-1.4c0.4-0.4,0.8-0.7,1.3-0.9c0.5-0.2,1.1-0.3,1.7-0.3
		c0.8,0,1.5,0.2,2.1,0.5c0.6,0.4,1,0.8,1.3,1.4c0.3,0.6,0.4,1.1,0.4,1.7c0,0.5-0.2,0.9-0.5,1C105.5,18.7,105.1,18.8,104.5,18.8z
		 M100.4,17.6h3.9c-0.1-0.7-0.2-1.3-0.6-1.6s-0.8-0.5-1.3-0.5c-0.5,0-1,0.2-1.3,0.5C100.6,16.3,100.4,16.9,100.4,17.6z"/>
	<path class="st1" d="M110.2,19.5v1.8c0,0.4-0.1,0.8-0.3,1c-0.2,0.2-0.5,0.3-0.8,0.3c-0.3,0-0.6-0.1-0.8-0.3c-0.2-0.2-0.3-0.5-0.3-1
		v-5.9c0-1,0.3-1.4,1-1.4c0.4,0,0.6,0.1,0.8,0.3c0.2,0.2,0.2,0.6,0.3,1c0.3-0.4,0.5-0.8,0.8-1s0.6-0.3,1.1-0.3s0.9,0.1,1.3,0.3
		c0.4,0.2,0.6,0.5,0.6,0.9c0,0.3-0.1,0.5-0.3,0.6c-0.2,0.2-0.4,0.3-0.6,0.3c-0.1,0-0.3,0-0.6-0.1c-0.3-0.1-0.6-0.1-0.8-0.1
		c-0.3,0-0.6,0.1-0.8,0.2c-0.2,0.2-0.4,0.4-0.5,0.7c-0.1,0.3-0.2,0.7-0.2,1.1C110.2,18.3,110.2,18.9,110.2,19.5z"/>
</g>
<text transform="matrix(1 0 0 1 292.0943 31.9407)" class="st2" style="font-family:'ArialRoundedMTBold'; font-size:29.2316px;">MiniTuiter</text>
<g>
	<g>
		<path class="st2" d="M281.3,21.8c-0.1-0.4-0.4-0.7-0.7-0.8c-0.4-0.1-0.7-0.1-1.1,0.1l-2.3,1.2v-8.2c0-6.2-5.1-11.3-11.3-11.3
			c-4.9,0-9.1,3.2-10.6,7.5l-6.3,3.6c-0.4,0.2-0.6,0.6-0.6,1.1s0.2,0.9,0.6,1.1l5.7,3.2v2.9l-2.2-1.2c-0.3-0.2-0.7-0.2-1.1-0.1
			c-0.4,0.1-0.6,0.4-0.7,0.8c-0.9,2.8-1.3,5.3-1.2,7.4c0.3,9.3,7.5,16.5,16.5,16.5c9.1,0,16.5-7.4,16.5-16.5
			C282.5,26.9,282.1,24.4,281.3,21.8z M266,5.3c4.8,0,8.8,3.9,8.8,8.8v9.1l-3.5-2.6c-0.4-0.3-1.1-0.3-1.5,0l-3.7,2.8l-3.7-2.8
			c-0.4-0.3-1.1-0.3-1.5,0l-3.5,2.6v-9.1C257.2,9.3,261.1,5.3,266,5.3z M253.7,15.9l-1.5-0.9l2.5-1.4c0,0.2,0,0.3,0,0.5v2.4
			L253.7,15.9z M266,43.1c-7.6,0-13.8-6.2-14-14.1c0-1.4,0.2-3.2,0.7-5.1l3.8,2.1c0.4,0.2,1,0.2,1.4-0.1l3.7-2.8l3.7,2.8
			c0.4,0.3,1.1,0.3,1.5,0l3.7-2.8l3.7,2.8c0.4,0.3,0.9,0.3,1.4,0.1l3.8-2.1c0.5,1.8,0.7,3.5,0.7,5.1C280,36.8,273.7,43.1,266,43.1z"
			/>
		<path class="st2" d="M261.1,14.4c0.7,0,1.3-0.6,1.3-1.3c0-0.7-0.6-1.3-1.3-1.3c-0.7,0-1.3,0.6-1.3,1.3
			C259.8,13.8,260.4,14.4,261.1,14.4z"/>
	</g>
</g>
</svg>
